<svg xmlns="http://www.w3.org/2000/svg" width="748.25" height="586.177" viewBox="0 0 748.25 586.177">
  <g id="Group_153" data-name="Group 153" transform="translate(-3.75 -25.066)" opacity="0.24">
    <g id="Group_51" data-name="Group 51" transform="translate(3.75 71.624)">
      <path id="Path_10" data-name="Path 10" d="M3.75,107.864l40.64,23.328v50.127L3.75,204.648v1.084l41.578-23.871v-51.21L3.75,106.78Z" transform="translate(-3.75 -106.78)" fill="#e6e7e8"/>
    </g>
    <g id="Group_52" data-name="Group 52" transform="translate(3.75 25.066)">
      <path id="Path_11" data-name="Path 11" d="M44.889,94.684,3.75,71.064v1.084l41.139,23.62,44.6-25.605v-45.1h-.938V69.621Z" transform="translate(-3.75 -25.066)" fill="#e6e7e8"/>
    </g>
    <g id="Group_53" data-name="Group 53" transform="translate(3.75 146.43)">
      <path id="Path_12" data-name="Path 12" d="M3.75,262.777l41.139-23.621,43.66,25.064v50.126L44.889,339.41,3.75,315.8v1.084l41.139,23.614,44.6-25.605V263.684l-44.6-25.611L3.75,261.694Z" transform="translate(-3.75 -238.072)" fill="#e6e7e8"/>
    </g>
    <g id="Group_54" data-name="Group 54" transform="translate(44.451 69.888)">
      <path id="Path_13" data-name="Path 13" d="M75.184,180.55V129.34l44.6-25.607,44.6,25.607v51.21l-44.6,25.6Zm.938-50.669v50.127l43.659,25.064,43.648-25.064V129.881l-43.648-25.062Z" transform="translate(-75.184 -103.733)" fill="#e6e7e8"/>
    </g>
    <g id="Group_55" data-name="Group 55" transform="translate(88.598 25.066)">
      <path id="Path_14" data-name="Path 14" d="M241.874,70.163v-45.1h-.949V69.621L197.277,94.684l-43.66-25.063V25.066h-.95v45.1l44.611,25.605Z" transform="translate(-152.666 -25.066)" fill="#e6e7e8"/>
    </g>
    <g id="Group_56" data-name="Group 56" transform="translate(88.598 146.43)">
      <path id="Path_15" data-name="Path 15" d="M152.666,314.889V263.684l44.611-25.612,44.6,25.612v51.205l-44.6,25.6Zm.95-50.669v50.127l43.66,25.064,43.648-25.064V264.22l-43.648-25.064Z" transform="translate(-152.666 -238.072)" fill="#e6e7e8"/>
    </g>
    <g id="Group_57" data-name="Group 57" transform="translate(88.598 299.521)">
      <path id="Path_16" data-name="Path 16" d="M152.666,583.572V532.366l44.611-25.605,44.6,25.605v51.205l-44.6,25.6Zm.95-50.663v50.127l43.66,25.057,43.648-25.057V532.909l-43.648-25.064Z" transform="translate(-152.666 -506.761)" fill="#e6e7e8"/>
    </g>
    <g id="Group_58" data-name="Group 58" transform="translate(132.757 69.888)">
      <path id="Path_17" data-name="Path 17" d="M230.17,180.55V129.34l44.6-25.607,44.609,25.607v51.21l-44.609,25.6Zm.95-50.669v50.127l43.648,25.064,43.66-25.064V129.881l-43.66-25.062Z" transform="translate(-230.17 -103.733)" fill="#e6e7e8"/>
    </g>
    <g id="Group_59" data-name="Group 59" transform="translate(132.757 222.979)">
      <path id="Path_18" data-name="Path 18" d="M230.17,449.233v-51.21l44.6-25.6,44.609,25.6v51.21l-44.609,25.6Zm.95-50.669V448.69l43.648,25.064,43.66-25.064V398.564L274.768,373.5Z" transform="translate(-230.17 -372.422)" fill="#e6e7e8"/>
    </g>
    <g id="Group_60" data-name="Group 60" transform="translate(132.757 376.063)">
      <path id="Path_19" data-name="Path 19" d="M230.17,717.916V666.7l44.6-25.6,44.609,25.6v51.211l-44.609,25.605Zm.95-50.669v50.127l43.648,25.064,43.66-25.064V667.247l-43.66-25.064Z" transform="translate(-230.17 -641.1)" fill="#e6e7e8"/>
    </g>
    <g id="Group_61" data-name="Group 61" transform="translate(176.916 25.066)">
      <path id="Path_20" data-name="Path 20" d="M396.87,70.163v-45.1h-.938V69.621l-43.66,25.063L308.624,69.621V25.066h-.95v45.1l44.6,25.605Z" transform="translate(-307.673 -25.066)" fill="#e6e7e8"/>
    </g>
    <g id="Group_62" data-name="Group 62" transform="translate(176.916 146.43)">
      <path id="Path_21" data-name="Path 21" d="M307.673,314.889V263.684l44.6-25.612,44.6,25.612v51.205l-44.6,25.6Zm.95-50.669v50.127l43.648,25.064,43.66-25.064V264.22l-43.66-25.064Z" transform="translate(-307.673 -238.072)" fill="#e6e7e8"/>
    </g>
    <g id="Group_63" data-name="Group 63" transform="translate(176.916 299.521)">
      <path id="Path_22" data-name="Path 22" d="M307.673,583.572V532.366l44.6-25.605,44.6,25.605v51.205l-44.6,25.6Zm.95-50.663v50.127l43.648,25.057,43.66-25.057V532.909l-43.66-25.064Z" transform="translate(-307.673 -506.761)" fill="#e6e7e8"/>
    </g>
    <g id="Group_64" data-name="Group 64" transform="translate(221.077 69.888)">
      <path id="Path_23" data-name="Path 23" d="M385.179,180.55V129.34l44.6-25.607,44.6,25.607v51.21l-44.6,25.6Zm.938-50.669v50.127l43.659,25.064,43.66-25.064V129.881l-43.66-25.062Z" transform="translate(-385.179 -103.733)" fill="#e6e7e8"/>
    </g>
    <g id="Group_65" data-name="Group 65" transform="translate(221.077 222.979)">
      <path id="Path_24" data-name="Path 24" d="M385.179,449.233v-51.21l44.6-25.6,44.6,25.6v51.21l-44.6,25.6Zm.938-50.669V448.69l43.659,25.064,43.66-25.064V398.564L429.776,373.5Z" transform="translate(-385.179 -372.422)" fill="#e6e7e8"/>
    </g>
    <g id="Group_66" data-name="Group 66" transform="translate(221.077 376.063)">
      <path id="Path_25" data-name="Path 25" d="M385.179,717.916V666.7l44.6-25.6,44.6,25.6v51.211l-44.6,25.605Zm.938-50.669v50.127l43.659,25.064,43.66-25.064V667.247l-43.66-25.064Z" transform="translate(-385.179 -641.1)" fill="#e6e7e8"/>
    </g>
    <g id="Group_67" data-name="Group 67" transform="translate(265.236 25.066)">
      <path id="Path_26" data-name="Path 26" d="M551.878,70.163v-45.1h-.938V69.621L507.28,94.684,463.621,69.621V25.066h-.938v45.1l44.6,25.605Z" transform="translate(-462.683 -25.066)" fill="#e6e7e8"/>
    </g>
    <g id="Group_68" data-name="Group 68" transform="translate(265.236 146.43)">
      <path id="Path_27" data-name="Path 27" d="M462.683,314.889V263.684l44.6-25.612,44.6,25.612v51.205l-44.6,25.6Zm.938-50.669v50.127L507.28,339.41l43.66-25.064V264.22l-43.66-25.064Z" transform="translate(-462.683 -238.072)" fill="#e6e7e8"/>
    </g>
    <g id="Group_69" data-name="Group 69" transform="translate(265.236 299.521)">
      <path id="Path_28" data-name="Path 28" d="M462.683,583.572V532.366l44.6-25.605,44.6,25.605v51.205l-44.6,25.6Zm.938-50.663v50.127l43.659,25.057,43.66-25.057V532.909l-43.66-25.064Z" transform="translate(-462.683 -506.761)" fill="#e6e7e8"/>
    </g>
    <g id="Group_70" data-name="Group 70" transform="translate(309.395 69.888)">
      <path id="Path_29" data-name="Path 29" d="M540.186,180.55V129.34l44.6-25.607,44.6,25.607v51.21l-44.6,25.6Zm.938-50.669v50.127l43.66,25.064,43.653-25.064V129.881l-43.653-25.062Z" transform="translate(-540.186 -103.733)" fill="#e6e7e8"/>
    </g>
    <g id="Group_71" data-name="Group 71" transform="translate(309.395 222.979)">
      <path id="Path_30" data-name="Path 30" d="M540.186,449.233v-51.21l44.6-25.6,44.6,25.6v51.21l-44.6,25.6Zm.938-50.669V448.69l43.66,25.064,43.653-25.064V398.564L584.784,373.5Z" transform="translate(-540.186 -372.422)" fill="#e6e7e8"/>
    </g>
    <g id="Group_72" data-name="Group 72" transform="translate(309.395 376.063)">
      <path id="Path_31" data-name="Path 31" d="M540.186,717.916V666.7l44.6-25.6,44.6,25.6v51.211l-44.6,25.605Zm.938-50.669v50.127l43.66,25.064,43.653-25.064V667.247l-43.653-25.064Z" transform="translate(-540.186 -641.1)" fill="#e6e7e8"/>
    </g>
    <g id="Group_73" data-name="Group 73" transform="translate(353.554 25.066)">
      <path id="Path_32" data-name="Path 32" d="M706.885,70.163v-45.1h-.943V69.621L662.288,94.684l-43.66-25.063V25.066h-.938v45.1l44.6,25.605Z" transform="translate(-617.69 -25.066)" fill="#e6e7e8"/>
    </g>
    <g id="Group_74" data-name="Group 74" transform="translate(353.554 146.43)">
      <path id="Path_33" data-name="Path 33" d="M617.69,314.889V263.684l44.6-25.612,44.6,25.612v51.205l-44.6,25.6Zm.938-50.669v50.127l43.66,25.064,43.654-25.064V264.22l-43.654-25.064Z" transform="translate(-617.69 -238.072)" fill="#e6e7e8"/>
    </g>
    <g id="Group_75" data-name="Group 75" transform="translate(353.554 299.521)">
      <path id="Path_34" data-name="Path 34" d="M617.69,583.572V532.366l44.6-25.605,44.6,25.605v51.205l-44.6,25.6Zm.938-50.663v50.127l43.66,25.057,43.654-25.057V532.909l-43.654-25.064Z" transform="translate(-617.69 -506.761)" fill="#e6e7e8"/>
    </g>
    <g id="Group_76" data-name="Group 76" transform="translate(397.707 69.888)">
      <path id="Path_35" data-name="Path 35" d="M695.183,180.55V129.34l44.6-25.607,44.6,25.607v51.21l-44.6,25.6Zm.944-50.669v50.127l43.654,25.064,43.654-25.064V129.881l-43.654-25.062Z" transform="translate(-695.183 -103.733)" fill="#e6e7e8"/>
    </g>
    <g id="Group_77" data-name="Group 77" transform="translate(397.707 222.979)">
      <path id="Path_36" data-name="Path 36" d="M695.183,449.233v-51.21l44.6-25.6,44.6,25.6v51.21l-44.6,25.6Zm.944-50.669V448.69l43.654,25.064,43.654-25.064V398.564L739.781,373.5Z" transform="translate(-695.183 -372.422)" fill="#e6e7e8"/>
    </g>
    <g id="Group_78" data-name="Group 78" transform="translate(397.707 376.063)">
      <path id="Path_37" data-name="Path 37" d="M695.183,717.916V666.7l44.6-25.6,44.6,25.6v51.211l-44.6,25.605Zm.944-50.669v50.127l43.654,25.064,43.654-25.064V667.247l-43.654-25.064Z" transform="translate(-695.183 -641.1)" fill="#e6e7e8"/>
    </g>
    <g id="Group_79" data-name="Group 79" transform="translate(441.867 25.066)">
      <path id="Path_38" data-name="Path 38" d="M861.883,70.163v-45.1h-.944V69.621L817.284,94.684,773.63,69.621V25.066h-.944v45.1l44.6,25.605Z" transform="translate(-772.686 -25.066)" fill="#e6e7e8"/>
    </g>
    <g id="Group_80" data-name="Group 80" transform="translate(441.866 146.43)">
      <path id="Path_39" data-name="Path 39" d="M772.686,314.889V263.684l44.6-25.612,44.6,25.612v51.205l-44.6,25.6Zm.944-50.669v50.127l43.654,25.064,43.655-25.064V264.22l-43.655-25.064Z" transform="translate(-772.686 -238.072)" fill="#e6e7e8"/>
    </g>
    <g id="Group_81" data-name="Group 81" transform="translate(441.866 299.521)">
      <path id="Path_40" data-name="Path 40" d="M772.686,583.572V532.366l44.6-25.605,44.6,25.605v51.205l-44.6,25.6Zm.944-50.663v50.127l43.654,25.057,43.655-25.057V532.909l-43.655-25.064Z" transform="translate(-772.686 -506.761)" fill="#e6e7e8"/>
    </g>
    <g id="Group_82" data-name="Group 82" transform="translate(486.021 69.888)">
      <path id="Path_41" data-name="Path 41" d="M850.181,180.55V129.34l44.6-25.607,44.6,25.607v51.21l-44.6,25.6Zm.944-50.669v50.127l43.659,25.064,43.654-25.064V129.881l-43.654-25.062Z" transform="translate(-850.181 -103.733)" fill="#e6e7e8"/>
    </g>
    <g id="Group_83" data-name="Group 83" transform="translate(486.021 222.979)">
      <path id="Path_42" data-name="Path 42" d="M850.181,449.233v-51.21l44.6-25.6,44.6,25.6v51.21l-44.6,25.6Zm.944-50.669V448.69l43.659,25.064,43.654-25.064V398.564L894.784,373.5Z" transform="translate(-850.181 -372.422)" fill="#e6e7e8"/>
    </g>
    <g id="Group_84" data-name="Group 84" transform="translate(486.021 376.063)">
      <path id="Path_43" data-name="Path 43" d="M850.181,717.916V666.7l44.6-25.6,44.6,25.6v51.211l-44.6,25.605Zm.944-50.669v50.127l43.659,25.064,43.654-25.064V667.247l-43.654-25.064Z" transform="translate(-850.181 -641.1)" fill="#e6e7e8"/>
    </g>
    <g id="Group_85" data-name="Group 85" transform="translate(530.18 25.066)">
      <path id="Path_44" data-name="Path 44" d="M1016.886,70.163v-45.1h-.944V69.621L972.283,94.684,928.629,69.621V25.066h-.944v45.1l44.6,25.605Z" transform="translate(-927.685 -25.066)" fill="#e6e7e8"/>
    </g>
    <g id="Group_86" data-name="Group 86" transform="translate(530.18 146.43)">
      <path id="Path_45" data-name="Path 45" d="M927.685,314.889V263.684l44.6-25.612,44.6,25.612v51.205l-44.6,25.6Zm.944-50.669v50.127l43.654,25.064,43.659-25.064V264.22l-43.659-25.064Z" transform="translate(-927.685 -238.072)" fill="#e6e7e8"/>
    </g>
    <g id="Group_87" data-name="Group 87" transform="translate(530.18 299.521)">
      <path id="Path_46" data-name="Path 46" d="M927.685,583.572V532.366l44.6-25.605,44.6,25.605v51.205l-44.6,25.6Zm.944-50.663v50.127l43.654,25.057,43.659-25.057V532.909l-43.659-25.064Z" transform="translate(-927.685 -506.761)" fill="#e6e7e8"/>
    </g>
    <g id="Group_88" data-name="Group 88" transform="translate(574.339 376.063)">
      <path id="Path_47" data-name="Path 47" d="M1005.188,717.916V666.7l44.6-25.6,44.6,25.6v51.211l-44.6,25.605Zm.944-50.669v50.127l43.654,25.064,43.655-25.064V667.247l-43.655-25.064Z" transform="translate(-1005.188 -641.1)" fill="#e6e7e8"/>
    </g>
    <g id="Group_89" data-name="Group 89" transform="translate(618.498 25.066)">
      <path id="Path_48" data-name="Path 48" d="M1171.888,70.163v-45.1h-.944V69.621L1127.29,94.684l-43.66-25.063V25.066h-.937v45.1l44.6,25.605Z" transform="translate(-1082.692 -25.066)" fill="#e6e7e8"/>
    </g>
    <g id="Group_90" data-name="Group 90" transform="translate(662.651 376.063)">
      <path id="Path_49" data-name="Path 49" d="M1160.185,717.916V666.7l44.6-25.6,44.6,25.6v51.211l-44.6,25.605Zm.944-50.669v50.127l43.654,25.064,43.66-25.064V667.247l-43.66-25.064Z" transform="translate(-1160.185 -641.1)" fill="#e6e7e8"/>
    </g>
    <g id="Group_91" data-name="Group 91" transform="translate(706.812 25.066)">
      <path id="Path_50" data-name="Path 50" d="M1282.879,95.427V94.344l-.591.34-43.654-25.063V25.066h-.943v45.1l44.6,25.605Z" transform="translate(-1237.691 -25.066)" fill="#e6e7e8"/>
    </g>
    <g id="Group_92" data-name="Group 92" transform="translate(750.971 401.079)">
      <path id="Path_51" data-name="Path 51" d="M1316.223,736.312l-.085-.049V686.136l.085-.049V685l-1.029.59v51.211l1.029.59Z" transform="translate(-1315.194 -685.004)" fill="#e6e7e8"/>
    </g>
    <g id="Group_152" data-name="Group 152" transform="translate(3.75 25.066)">
      <g id="Group_93" data-name="Group 93" transform="translate(0)">
        <path id="Path_52" data-name="Path 52" d="M3.75,68.056V69.14L45.474,45.191V25.066h-.95V44.649Z" transform="translate(-3.75 -25.066)" fill="#a7a9ac" opacity="0.578"/>
      </g>
      <g id="Group_94" data-name="Group 94" transform="translate(0 251.134)">
        <path id="Path_53" data-name="Path 53" d="M3.75,466.913l40.773,23.408v50.126L3.75,563.86v1.084L45.474,540.99V489.784L3.75,465.829Z" transform="translate(-3.75 -465.829)" fill="#a7a9ac" opacity="0.805"/>
      </g>
      <g id="Group_95" data-name="Group 95" transform="translate(0 404.218)">
        <path id="Path_54" data-name="Path 54" d="M3.75,735.591,44.523,759v50.128L3.75,832.538v1.084l41.724-23.949v-51.21L3.75,734.507Z" transform="translate(-3.75 -734.507)" fill="#a7a9ac" opacity="0.951"/>
      </g>
      <g id="Group_96" data-name="Group 96" transform="translate(0 326.026)">
        <path id="Path_55" data-name="Path 55" d="M3.75,622.049l41.273-23.693,43.659,25.062v50.128L45.024,698.6,3.75,674.911v1.084l41.273,23.693,44.609-25.606v-51.2L45.024,597.272,3.75,620.966Z" transform="translate(-3.75 -597.272)" fill="#a7a9ac" opacity="0.864"/>
      </g>
      <g id="Group_97" data-name="Group 97" transform="translate(0 479.11)">
        <path id="Path_56" data-name="Path 56" d="M3.75,890.727l41.273-23.693L88.683,892.1v50.128L45.024,967.287,3.75,943.588v1.085l41.273,23.7,44.609-25.605v-51.21L45.024,865.95,3.75,889.643Z" transform="translate(-3.75 -865.95)" fill="#a7a9ac" opacity="0.487"/>
      </g>
      <g id="Group_98" data-name="Group 98" transform="translate(40.835)">
        <path id="Path_57" data-name="Path 57" d="M164.615,45.191V25.066h-.938V44.649l-43.66,25.064L76.369,44.649V25.066h-.95V45.191l44.6,25.605Z" transform="translate(-75.418 -25.066)" fill="#a7a9ac" opacity="0.333"/>
      </g>
      <g id="Group_99" data-name="Group 99" transform="translate(40.834 249.484)">
        <path id="Path_58" data-name="Path 58" d="M75.418,539.744V488.539l44.6-25.6,44.6,25.6v51.205l-44.6,25.6Zm.95-50.669V539.2l43.648,25.064,43.66-25.064V489.075l-43.66-25.057Z" transform="translate(-75.418 -462.934)" fill="#a7a9ac" opacity="0.71"/>
      </g>
      <g id="Group_100" data-name="Group 100" transform="translate(40.834 402.568)">
        <path id="Path_59" data-name="Path 59" d="M75.418,808.427v-51.21l44.6-25.605,44.6,25.605v51.21l-44.6,25.606Zm.95-50.669v50.128l43.648,25.062,43.66-25.062V757.758l-43.66-25.063Z" transform="translate(-75.418 -731.611)" fill="#a7a9ac" opacity="0.726"/>
      </g>
      <g id="Group_101" data-name="Group 101" transform="translate(84.994 326.026)">
        <path id="Path_60" data-name="Path 60" d="M152.922,674.082v-51.2l44.6-25.605,44.6,25.605v51.2l-44.6,25.606Zm.938-50.663v50.128L197.52,698.6l43.66-25.057V623.419l-43.66-25.062Z" transform="translate(-152.922 -597.272)" fill="#a7a9ac" opacity="0.639"/>
      </g>
      <g id="Group_102" data-name="Group 102" transform="translate(129.153)">
        <path id="Path_61" data-name="Path 61" d="M319.622,45.191V25.066h-.938V44.649l-43.66,25.064-43.66-25.064V25.066h-.938V45.191l44.6,25.605Z" transform="translate(-230.426 -25.066)" fill="#a7a9ac" opacity="0.22"/>
      </g>
      <g id="Group_103" data-name="Group 103" transform="translate(129.153 96.393)">
        <path id="Path_62" data-name="Path 62" d="M230.426,271.061V219.85l44.6-25.6,44.6,25.6v51.211l-44.6,25.605Zm.938-50.669v50.127l43.66,25.064,43.66-25.064V220.392l-43.66-25.064Z" transform="translate(-230.426 -194.245)" fill="#a7a9ac" opacity="0.857"/>
      </g>
      <g id="Group_104" data-name="Group 104" transform="translate(129.153 249.484)">
        <path id="Path_63" data-name="Path 63" d="M230.426,539.744V488.539l44.6-25.6,44.6,25.6v51.205l-44.6,25.6Zm.938-50.669V539.2l43.66,25.064,43.66-25.064V489.075l-43.66-25.057Z" transform="translate(-230.426 -462.934)" fill="#a7a9ac" opacity="0.963"/>
      </g>
      <g id="Group_105" data-name="Group 105" transform="translate(173.314 19.851)">
        <path id="Path_64" data-name="Path 64" d="M307.932,136.722V85.511l44.6-25.605,44.6,25.605v51.211l-44.6,25.605Zm.937-50.669V136.18l43.659,25.064,43.648-25.064V86.053L352.528,60.99Z" transform="translate(-307.932 -59.906)" fill="#a7a9ac" opacity="0.384"/>
      </g>
      <g id="Group_106" data-name="Group 106" transform="translate(173.314 172.935)">
        <path id="Path_65" data-name="Path 65" d="M307.932,405.4V354.189l44.6-25.6,44.6,25.6V405.4l-44.6,25.605Zm.937-50.669v50.127l43.659,25.064,43.648-25.064V354.731l-43.648-25.064Z" transform="translate(-307.932 -328.584)" fill="#a7a9ac" opacity="0.7"/>
      </g>
      <g id="Group_107" data-name="Group 107" transform="translate(173.314 326.026)">
        <path id="Path_66" data-name="Path 66" d="M307.932,674.082v-51.2l44.6-25.605,44.6,25.605v51.2l-44.6,25.606Zm.937-50.663v50.128L352.528,698.6l43.648-25.057V623.419l-43.648-25.062Z" transform="translate(-307.932 -597.272)" fill="#a7a9ac" opacity="0.951"/>
      </g>
      <g id="Group_108" data-name="Group 108" transform="translate(217.46)">
        <path id="Path_67" data-name="Path 67" d="M474.621,45.191V25.066h-.95V44.649L430.023,69.712,386.364,44.649V25.066h-.95V45.191L430.023,70.8Z" transform="translate(-385.413 -25.066)" fill="#a7a9ac" opacity="0.454"/>
      </g>
      <g id="Group_109" data-name="Group 109" transform="translate(217.46 96.393)">
        <path id="Path_68" data-name="Path 68" d="M385.413,271.061V219.85l44.61-25.6,44.6,25.6v51.211l-44.6,25.605Zm.95-50.669v50.127l43.659,25.064,43.648-25.064V220.392l-43.648-25.064Z" transform="translate(-385.413 -194.245)" fill="#a7a9ac" opacity="0.726"/>
      </g>
      <g id="Group_110" data-name="Group 110" transform="translate(217.46 249.484)">
        <path id="Path_69" data-name="Path 69" d="M385.413,539.744V488.539l44.61-25.6,44.6,25.6v51.205l-44.6,25.6Zm.95-50.669V539.2l43.659,25.064L473.67,539.2V489.075l-43.648-25.057Z" transform="translate(-385.413 -462.934)" fill="#a7a9ac" opacity="0.809"/>
      </g>
      <g id="Group_111" data-name="Group 111" transform="translate(217.46 402.568)">
        <path id="Path_70" data-name="Path 70" d="M385.413,808.427v-51.21l44.61-25.605,44.6,25.605v51.21l-44.6,25.606Zm.95-50.669v50.128l43.659,25.062,43.648-25.062V757.758l-43.648-25.063Z" transform="translate(-385.413 -731.611)" fill="#a7a9ac" opacity="0.24"/>
      </g>
      <g id="Group_112" data-name="Group 112" transform="translate(261.619 19.851)">
        <path id="Path_71" data-name="Path 71" d="M462.917,136.722V85.511l44.611-25.605,44.6,25.605v51.211l-44.6,25.605Zm.95-50.669V136.18l43.66,25.064,43.648-25.064V86.053L507.528,60.99Z" transform="translate(-462.917 -59.906)" fill="#a7a9ac" opacity="0.252"/>
      </g>
      <g id="Group_113" data-name="Group 113" transform="translate(261.619 172.935)">
        <path id="Path_72" data-name="Path 72" d="M462.917,405.4V354.189l44.611-25.6,44.6,25.6V405.4l-44.6,25.605Zm.95-50.669v50.127l43.66,25.064,43.648-25.064V354.731l-43.648-25.064Z" transform="translate(-462.917 -328.584)" fill="#a7a9ac" opacity="0.948"/>
      </g>
      <g id="Group_114" data-name="Group 114" transform="translate(261.619 326.026)">
        <path id="Path_73" data-name="Path 73" d="M462.917,674.082v-51.2l44.611-25.605,44.6,25.605v51.2l-44.6,25.606Zm.95-50.663v50.128l43.66,25.057,43.648-25.057V623.419l-43.648-25.062Z" transform="translate(-462.917 -597.272)" fill="#a7a9ac" opacity="0.367"/>
      </g>
      <g id="Group_115" data-name="Group 115" transform="translate(305.779)">
        <path id="Path_74" data-name="Path 74" d="M629.623,45.191V25.066h-.944V44.649l-43.66,25.064L541.371,44.649V25.066h-.95V45.191l44.6,25.605Z" transform="translate(-540.421 -25.066)" fill="#a7a9ac" opacity="0.953"/>
      </g>
      <g id="Group_116" data-name="Group 116" transform="translate(305.779 96.393)">
        <path id="Path_75" data-name="Path 75" d="M540.421,271.061V219.85l44.6-25.6,44.6,25.6v51.211l-44.6,25.605Zm.95-50.669v50.127l43.648,25.064,43.66-25.064V220.392l-43.66-25.064Z" transform="translate(-540.421 -194.245)" fill="#a7a9ac" opacity="0.948"/>
      </g>
      <g id="Group_117" data-name="Group 117" transform="translate(305.779 249.484)">
        <path id="Path_76" data-name="Path 76" d="M540.421,539.744V488.539l44.6-25.6,44.6,25.6v51.205l-44.6,25.6Zm.95-50.669V539.2l43.648,25.064L628.68,539.2V489.075l-43.66-25.057Z" transform="translate(-540.421 -462.934)" fill="#a7a9ac" opacity="0.528"/>
      </g>
      <g id="Group_118" data-name="Group 118" transform="translate(305.779 402.568)">
        <path id="Path_77" data-name="Path 77" d="M540.421,808.427v-51.21l44.6-25.605,44.6,25.605v51.21l-44.6,25.606Zm.95-50.669v50.128l43.648,25.062,43.66-25.062V757.758l-43.66-25.063Z" transform="translate(-540.421 -731.611)" fill="#a7a9ac" opacity="0.943"/>
      </g>
      <g id="Group_119" data-name="Group 119" transform="translate(349.938 19.851)">
        <path id="Path_78" data-name="Path 78" d="M617.924,136.722V85.511l44.6-25.605,44.6,25.605v51.211l-44.6,25.605Zm.95-50.669V136.18l43.654,25.064,43.654-25.064V86.053L662.528,60.99Z" transform="translate(-617.924 -59.906)" fill="#a7a9ac" opacity="0.499"/>
      </g>
      <g id="Group_120" data-name="Group 120" transform="translate(349.938 172.935)">
        <path id="Path_79" data-name="Path 79" d="M617.924,405.4V354.189l44.6-25.6,44.6,25.6V405.4l-44.6,25.605Zm.95-50.669v50.127l43.654,25.064,43.654-25.064V354.731l-43.654-25.064Z" transform="translate(-617.924 -328.584)" fill="#a7a9ac" opacity="0.284"/>
      </g>
      <g id="Group_121" data-name="Group 121" transform="translate(349.938 326.026)">
        <path id="Path_80" data-name="Path 80" d="M617.924,674.082v-51.2l44.6-25.605,44.6,25.605v51.2l-44.6,25.606Zm.95-50.663v50.128L662.528,698.6l43.654-25.057V623.419l-43.654-25.062Z" transform="translate(-617.924 -597.272)" fill="#a7a9ac" opacity="0.456"/>
      </g>
      <g id="Group_122" data-name="Group 122" transform="translate(394.098)">
        <path id="Path_81" data-name="Path 81" d="M784.625,45.191V25.066h-.944V44.649L740.027,69.712,696.373,44.649V25.066h-.943V45.191l44.6,25.605Z" transform="translate(-695.43 -25.066)" fill="#a7a9ac" opacity="0.397"/>
      </g>
      <g id="Group_123" data-name="Group 123" transform="translate(394.098 96.393)">
        <path id="Path_82" data-name="Path 82" d="M695.43,271.061V219.85l44.6-25.6,44.6,25.6v51.211l-44.6,25.605Zm.943-50.669v50.127l43.654,25.064,43.654-25.064V220.392l-43.654-25.064Z" transform="translate(-695.43 -194.245)" fill="#a7a9ac" opacity="0.226"/>
      </g>
      <g id="Group_124" data-name="Group 124" transform="translate(394.098 249.484)">
        <path id="Path_83" data-name="Path 83" d="M695.43,539.744V488.539l44.6-25.6,44.6,25.6v51.205l-44.6,25.6Zm.943-50.669V539.2l43.654,25.064L783.681,539.2V489.075l-43.654-25.057Z" transform="translate(-695.43 -462.934)" fill="#a7a9ac" opacity="0.56"/>
      </g>
      <g id="Group_125" data-name="Group 125" transform="translate(438.258 19.851)">
        <path id="Path_84" data-name="Path 84" d="M772.934,136.722V85.511l44.6-25.605,44.6,25.605v51.211l-44.6,25.605Zm.943-50.669V136.18l43.653,25.064,43.655-25.064V86.053L817.53,60.99Z" transform="translate(-772.934 -59.906)" fill="#a7a9ac" opacity="0.225"/>
      </g>
      <g id="Group_126" data-name="Group 126" transform="translate(438.258 172.935)">
        <path id="Path_85" data-name="Path 85" d="M772.934,405.4V354.189l44.6-25.6,44.6,25.6V405.4l-44.6,25.605Zm.943-50.669v50.127l43.653,25.064,43.655-25.064V354.731L817.53,329.668Z" transform="translate(-772.934 -328.584)" fill="#a7a9ac" opacity="0.92"/>
      </g>
      <g id="Group_127" data-name="Group 127" transform="translate(438.258 326.026)">
        <path id="Path_86" data-name="Path 86" d="M772.934,674.082v-51.2l44.6-25.605,44.6,25.605v51.2l-44.6,25.606Zm.943-50.663v50.128L817.53,698.6l43.655-25.057V623.419L817.53,598.356Z" transform="translate(-772.934 -597.272)" fill="#a7a9ac" opacity="0.47"/>
      </g>
      <g id="Group_128" data-name="Group 128" transform="translate(438.258 479.11)">
        <path id="Path_87" data-name="Path 87" d="M772.934,942.765v-51.21l44.6-25.605,44.6,25.605v51.21l-44.6,25.605Zm.943-50.668v50.127l43.653,25.063,43.655-25.063V892.1L817.53,867.034Z" transform="translate(-772.934 -865.95)" fill="#a7a9ac" opacity="0.458"/>
      </g>
      <g id="Group_129" data-name="Group 129" transform="translate(482.41)">
        <path id="Path_88" data-name="Path 88" d="M939.628,45.191V25.066h-.943V44.649L895.031,69.712,851.37,44.649V25.066h-.944V45.191l44.6,25.605Z" transform="translate(-850.426 -25.066)" fill="#a7a9ac" opacity="0.656"/>
      </g>
      <g id="Group_130" data-name="Group 130" transform="translate(482.41 96.393)">
        <path id="Path_89" data-name="Path 89" d="M850.426,271.061V219.85l44.6-25.6,44.6,25.6v51.211l-44.6,25.605Zm.944-50.669v50.127l43.66,25.064,43.654-25.064V220.392L895.03,195.329Z" transform="translate(-850.426 -194.245)" fill="#a7a9ac" opacity="0.885"/>
      </g>
      <g id="Group_131" data-name="Group 131" transform="translate(482.41 249.484)">
        <path id="Path_90" data-name="Path 90" d="M850.426,539.744V488.539l44.6-25.6,44.6,25.6v51.205l-44.6,25.6Zm.944-50.669V539.2l43.66,25.064L938.684,539.2V489.075L895.03,464.018Z" transform="translate(-850.426 -462.934)" fill="#a7a9ac" opacity="0.735"/>
      </g>
      <g id="Group_132" data-name="Group 132" transform="translate(482.41 402.568)">
        <path id="Path_91" data-name="Path 91" d="M850.426,808.427v-51.21l44.6-25.605,44.6,25.605v51.21l-44.6,25.606Zm.944-50.669v50.128l43.66,25.062,43.654-25.062V757.758L895.03,732.695Z" transform="translate(-850.426 -731.611)" fill="#a7a9ac" opacity="0.35"/>
      </g>
      <g id="Group_133" data-name="Group 133" transform="translate(526.57 19.851)">
        <path id="Path_92" data-name="Path 92" d="M927.93,136.722V85.511l44.6-25.605,44.6,25.605v51.211l-44.6,25.605Zm.944-50.669V136.18l43.654,25.064,43.66-25.064V86.053L972.528,60.99Z" transform="translate(-927.93 -59.906)" fill="#a7a9ac" opacity="0.818"/>
      </g>
      <g id="Group_134" data-name="Group 134" transform="translate(526.57 172.935)">
        <path id="Path_93" data-name="Path 93" d="M927.93,405.4V354.189l44.6-25.6,44.6,25.6V405.4l-44.6,25.605Zm.944-50.669v50.127l43.654,25.064,43.66-25.064V354.731l-43.66-25.064Z" transform="translate(-927.93 -328.584)" fill="#a7a9ac" opacity="0.824"/>
      </g>
      <g id="Group_135" data-name="Group 135" transform="translate(526.57 326.026)">
        <path id="Path_94" data-name="Path 94" d="M927.93,674.082v-51.2l44.6-25.605,44.6,25.605v51.2l-44.6,25.606Zm.944-50.663v50.128L972.528,698.6l43.66-25.057V623.419l-43.66-25.062Z" transform="translate(-927.93 -597.272)" fill="#a7a9ac" opacity="0.749"/>
      </g>
      <g id="Group_136" data-name="Group 136" transform="translate(570.729)">
        <path id="Path_95" data-name="Path 95" d="M1094.63,45.191V25.066h-.944V44.649l-43.654,25.064-43.654-25.064V25.066h-.944V45.191l44.6,25.605Z" transform="translate(-1005.434 -25.066)" fill="#a7a9ac" opacity="0.615"/>
      </g>
      <g id="Group_137" data-name="Group 137" transform="translate(570.729 96.393)">
        <path id="Path_96" data-name="Path 96" d="M1005.434,271.061V219.85l44.6-25.6,44.6,25.6v51.211l-44.6,25.605Zm.944-50.669v50.127l43.655,25.064,43.654-25.064V220.392l-43.654-25.064Z" transform="translate(-1005.434 -194.245)" fill="#a7a9ac" opacity="0.977"/>
      </g>
      <g id="Group_138" data-name="Group 138" transform="translate(570.729 249.484)">
        <path id="Path_97" data-name="Path 97" d="M1005.434,539.744V488.539l44.6-25.6,44.6,25.6v51.205l-44.6,25.6Zm.944-50.669V539.2l43.655,25.064,43.654-25.064V489.075l-43.654-25.057Z" transform="translate(-1005.434 -462.934)" fill="#a7a9ac" opacity="0.637"/>
      </g>
      <g id="Group_139" data-name="Group 139" transform="translate(570.729 402.568)">
        <path id="Path_98" data-name="Path 98" d="M1005.434,808.427v-51.21l44.6-25.605,44.6,25.605v51.21l-44.6,25.606Zm.944-50.669v50.128l43.655,25.062,43.654-25.062V757.758l-43.654-25.063Z" transform="translate(-1005.434 -731.611)" fill="#a7a9ac" opacity="0.4"/>
      </g>
      <g id="Group_140" data-name="Group 140" transform="translate(614.889 19.851)">
        <path id="Path_99" data-name="Path 99" d="M1082.939,136.722V85.511l44.6-25.605,44.6,25.605v51.211l-44.6,25.605Zm.937-50.669V136.18l43.66,25.064,43.654-25.064V86.053L1127.536,60.99Z" transform="translate(-1082.939 -59.906)" fill="#a7a9ac" opacity="0.559"/>
      </g>
      <g id="Group_141" data-name="Group 141" transform="translate(614.889 172.935)">
        <path id="Path_100" data-name="Path 100" d="M1082.939,405.4V354.189l44.6-25.6,44.6,25.6V405.4l-44.6,25.605Zm.937-50.669v50.127l43.66,25.064,43.654-25.064V354.731l-43.654-25.064Z" transform="translate(-1082.939 -328.584)" fill="#a7a9ac" opacity="0.513"/>
      </g>
      <g id="Group_142" data-name="Group 142" transform="translate(614.889 326.026)">
        <path id="Path_101" data-name="Path 101" d="M1082.939,674.082v-51.2l44.6-25.605,44.6,25.605v51.2l-44.6,25.606Zm.937-50.663v50.128l43.66,25.057,43.654-25.057V623.419l-43.654-25.062Z" transform="translate(-1082.939 -597.272)" fill="#a7a9ac" opacity="0.889"/>
      </g>
      <g id="Group_143" data-name="Group 143" transform="translate(614.889 479.11)">
        <path id="Path_102" data-name="Path 102" d="M1082.939,942.765v-51.21l44.6-25.605,44.6,25.605v51.21l-44.6,25.605Zm.937-50.668v50.127l43.66,25.063,43.654-25.063V892.1l-43.654-25.063Z" transform="translate(-1082.939 -865.95)" fill="#a7a9ac" opacity="0.292"/>
      </g>
      <g id="Group_144" data-name="Group 144" transform="translate(659.042)">
        <path id="Path_103" data-name="Path 103" d="M1249.633,45.191V25.066h-.944V44.649L1205.03,69.712l-43.654-25.064V25.066h-.944V45.191l44.6,25.605Z" transform="translate(-1160.432 -25.066)" fill="#a7a9ac" opacity="0.467"/>
      </g>
      <g id="Group_145" data-name="Group 145" transform="translate(659.042 96.393)">
        <path id="Path_104" data-name="Path 104" d="M1160.432,271.061V219.85l44.6-25.6,44.6,25.6v51.211l-44.6,25.605Zm.944-50.669v50.127l43.654,25.064,43.659-25.064V220.392l-43.659-25.064Z" transform="translate(-1160.432 -194.245)" fill="#a7a9ac" opacity="0.6"/>
      </g>
      <g id="Group_146" data-name="Group 146" transform="translate(659.042 249.484)">
        <path id="Path_105" data-name="Path 105" d="M1160.432,539.744V488.539l44.6-25.6,44.6,25.6v51.205l-44.6,25.6Zm.944-50.669V539.2l43.654,25.064,43.659-25.064V489.075l-43.659-25.057Z" transform="translate(-1160.432 -462.934)" fill="#a7a9ac" opacity="0.487"/>
      </g>
      <g id="Group_147" data-name="Group 147" transform="translate(659.042 402.568)">
        <path id="Path_106" data-name="Path 106" d="M1160.432,808.427v-51.21l44.6-25.605,44.6,25.605v51.21l-44.6,25.606Zm.944-50.669v50.128l43.654,25.062,43.659-25.062V757.758l-43.659-25.063Z" transform="translate(-1160.432 -731.611)" fill="#a7a9ac" opacity="0.583"/>
      </g>
      <g id="Group_148" data-name="Group 148" transform="translate(703.201 19.851)">
        <path id="Path_107" data-name="Path 107" d="M1282.984,160.982l-.45.262L1238.88,136.18V86.054l43.654-25.064.45.262V60.168l-.45-.262-44.6,25.605v51.211l44.6,25.605.45-.262Z" transform="translate(-1237.936 -59.906)" fill="#a7a9ac" opacity="0.619"/>
      </g>
      <g id="Group_149" data-name="Group 149" transform="translate(703.201 172.935)">
        <path id="Path_108" data-name="Path 108" d="M1282.984,429.666l-.45.256-43.654-25.064V354.731l43.654-25.064.45.262v-1.084l-.45-.262-44.6,25.605V405.4l44.6,25.605.45-.256Z" transform="translate(-1237.936 -328.584)" fill="#a7a9ac" opacity="0.6"/>
      </g>
      <g id="Group_150" data-name="Group 150" transform="translate(703.201 326.026)">
        <path id="Path_109" data-name="Path 109" d="M1282.984,698.347l-.45.257-43.654-25.058V623.419l43.654-25.062.45.255v-1.084l-.45-.256-44.6,25.605v51.2l44.6,25.606.45-.255Z" transform="translate(-1237.936 -597.272)" fill="#a7a9ac" opacity="0.539"/>
      </g>
      <g id="Group_151" data-name="Group 151" transform="translate(703.201 479.11)">
        <path id="Path_110" data-name="Path 110" d="M1282.984,967.025l-.45.262-43.654-25.063V892.1l43.654-25.063.45.256v-1.083l-.45-.256-44.6,25.605v51.21l44.6,25.605.45-.261Z" transform="translate(-1237.936 -865.95)" fill="#a7a9ac" opacity="0.565"/>
      </g>
      <path id="Path_111" data-name="Path 111" d="M3.75,733.4a4.457,4.457,0,0,0,1.632-3.428,4.483,4.483,0,0,0-1.632-3.435Z" transform="translate(-3.75 -326.858)" fill="#a7a9ac" opacity="0.842"/>
      <path id="Path_112" data-name="Path 112" d="M72.73,598.4a4.637,4.637,0,1,1,4.664-4.633A4.647,4.647,0,0,1,72.73,598.4Z" transform="translate(-31.421 -267.742)" fill="#a7a9ac" opacity="0.78"/>
      <path id="Path_113" data-name="Path 113" d="M72.583,778.2a4.829,4.829,0,1,1,4.848-4.829A4.847,4.847,0,0,1,72.583,778.2Z" transform="translate(-31.274 -344.934)" fill="#a7a9ac" opacity="0.22"/>
      <path id="Path_114" data-name="Path 114" d="M381.965,329.935a5.5,5.5,0,1,1,5.53-5.492A5.518,5.518,0,0,1,381.965,329.935Z" transform="translate(-164.09 -151.501)" fill="#a7a9ac" opacity="0.95"/>
      <path id="Path_115" data-name="Path 115" d="M381.827,598.656a5.678,5.678,0,1,1,5.711-5.674A5.693,5.693,0,0,1,381.827,598.656Z" transform="translate(-163.953 -266.956)" fill="#a7a9ac" opacity="0.322"/>
      <path id="Path_116" data-name="Path 116" d="M305.12,195.418a4.771,4.771,0,1,1,4.8-4.774A4.791,4.791,0,0,1,305.12,195.418Z" transform="translate(-131.344 -94.252)" fill="#a7a9ac" opacity="0.96"/>
      <path id="Path_117" data-name="Path 117" d="M305.488,463.978a4.29,4.29,0,1,1,4.322-4.286A4.3,4.3,0,0,1,305.488,463.978Z" transform="translate(-131.712 -210.208)" fill="#a7a9ac" opacity="0.444"/>
      <path id="Path_118" data-name="Path 118" d="M305.488,375.055a4.293,4.293,0,1,1,4.322-4.292A4.307,4.307,0,0,1,305.488,375.055Z" transform="translate(-131.712 -171.948)" fill="#a7a9ac" opacity="0.601"/>
      <path id="Path_119" data-name="Path 119" d="M460.572,912.354a4.041,4.041,0,1,1,4.068-4.043A4.058,4.058,0,0,1,460.572,912.354Z" transform="translate(-198.539 -403.327)" fill="#a7a9ac" opacity="0.578"/>
      <path id="Path_120" data-name="Path 120" d="M538.076,329.579a4.04,4.04,0,1,1,4.056-4.037A4.056,4.056,0,0,1,538.076,329.579Z" transform="translate(-231.884 -152.6)" fill="#a7a9ac" opacity="0.642"/>
      <path id="Path_121" data-name="Path 121" d="M382.008,598.638a5.584,5.584,0,1,1,5.615-5.583A5.605,5.605,0,0,1,382.008,598.638Z" transform="translate(-164.072 -267.03)" fill="#a7a9ac" opacity="0.989"/>
      <path id="Path_122" data-name="Path 122" d="M459.872,642.971a5.045,5.045,0,1,1,5.067-5.048A5.058,5.058,0,0,1,459.872,642.971Z" transform="translate(-197.803 -286.567)" fill="#a7a9ac" opacity="0.221"/>
      <path id="Path_123" data-name="Path 123" d="M537.561,598.431a4.732,4.732,0,1,1,4.763-4.732A4.737,4.737,0,0,1,537.561,598.431Z" transform="translate(-231.369 -267.674)" fill="#a7a9ac" opacity="0.492"/>
      <path id="Path_124" data-name="Path 124" d="M382.633,509.509a4.762,4.762,0,1,1,4.8-4.761A4.774,4.774,0,0,1,382.633,509.509Z" transform="translate(-164.698 -229.39)" fill="#a7a9ac" opacity="0.987"/>
      <path id="Path_125" data-name="Path 125" d="M538.132,508.385a4.055,4.055,0,1,1,4.066-4.056A4.067,4.067,0,0,1,538.132,508.385Z" transform="translate(-231.902 -229.515)" fill="#a7a9ac" opacity="0.454"/>
      <path id="Path_126" data-name="Path 126" d="M614.964,643.87a4.853,4.853,0,1,1,4.885-4.853A4.865,4.865,0,0,1,614.964,643.87Z" transform="translate(-264.612 -287.118)" fill="#a7a9ac" opacity="0.222"/>
      <path id="Path_127" data-name="Path 127" d="M692.141,329.881a5.276,5.276,0,1,1,5.31-5.273A5.289,5.289,0,0,1,692.141,329.881Z" transform="translate(-297.635 -151.666)" fill="#a7a9ac" opacity="0.304"/>
      <path id="Path_128" data-name="Path 128" d="M537.613,598.447a4.8,4.8,0,1,1,4.823-4.8A4.808,4.808,0,0,1,537.613,598.447Z" transform="translate(-231.359 -267.623)" fill="#a7a9ac" opacity="0.654"/>
      <path id="Path_129" data-name="Path 129" d="M615.017,465.068a4.856,4.856,0,1,1,4.883-4.854A4.862,4.862,0,0,1,615.017,465.068Z" transform="translate(-264.64 -210.19)" fill="#a7a9ac" opacity="0.364"/>
      <path id="Path_130" data-name="Path 130" d="M770.214,464.035a4.521,4.521,0,1,1,4.549-4.518A4.535,4.535,0,0,1,770.214,464.035Z" transform="translate(-331.549 -210.034)" fill="#a7a9ac" opacity="0.677"/>
      <path id="Path_131" data-name="Path 131" d="M692.361,777.311a5.066,5.066,0,1,1,5.091-5.066A5.077,5.077,0,0,1,692.361,777.311Z" transform="translate(-297.819 -344.345)" fill="#a7a9ac" opacity="0.736"/>
      <path id="Path_132" data-name="Path 132" d="M614.362,912.782a5.788,5.788,0,1,1,5.821-5.791A5.807,5.807,0,0,1,614.362,912.782Z" transform="translate(-263.949 -402.008)" fill="#a7a9ac" opacity="0.4"/>
      <path id="Path_133" data-name="Path 133" d="M692.574,329.775a4.844,4.844,0,1,1,4.871-4.841A4.861,4.861,0,0,1,692.574,329.775Z" transform="translate(-298.007 -151.993)" fill="#a7a9ac" opacity="0.489"/>
      <path id="Path_134" data-name="Path 134" d="M692.961,778.082a4.335,4.335,0,1,1,4.36-4.335A4.349,4.349,0,0,1,692.961,778.082Z" transform="translate(-298.394 -345.306)" fill="#a7a9ac" opacity="0.936"/>
      <path id="Path_135" data-name="Path 135" d="M769.96,1002.445a4.926,4.926,0,1,1,4.957-4.926A4.942,4.942,0,0,1,769.96,1002.445Z" transform="translate(-331.265 -441.325)" fill="#a7a9ac" opacity="0.427"/>
      <path id="Path_136" data-name="Path 136" d="M924.923,106.523a4.911,4.911,0,1,1,4.938-4.907A4.929,4.929,0,0,1,924.923,106.523Z" transform="translate(-397.939 -55.885)" fill="#a7a9ac" opacity="0.512"/>
      <path id="Path_137" data-name="Path 137" d="M924.524,464.259a5.441,5.441,0,1,1,5.468-5.437A5.457,5.457,0,0,1,924.524,464.259Z" transform="translate(-397.54 -209.338)" fill="#a7a9ac" opacity="0.67"/>
      <path id="Path_138" data-name="Path 138" d="M770.975,732.513a3.663,3.663,0,1,1,3.684-3.665A3.677,3.677,0,0,1,770.975,732.513Z" transform="translate(-332.249 -326.279)" fill="#a7a9ac" opacity="0.568"/>
      <path id="Path_139" data-name="Path 139" d="M925.686,464.855a3.986,3.986,0,1,1,4.007-3.983A3.993,3.993,0,0,1,925.686,464.855Z" transform="translate(-398.671 -210.847)" fill="#a7a9ac" opacity="0.551"/>
      <path id="Path_140" data-name="Path 140" d="M847.705,509.489a4.676,4.676,0,1,1,4.7-4.676A4.693,4.693,0,0,1,847.705,509.489Z" transform="translate(-364.82 -229.455)" fill="#a7a9ac" opacity="0.4"/>
      <path id="Path_141" data-name="Path 141" d="M924.874,195.5a5.118,5.118,0,1,1,5.146-5.121A5.136,5.136,0,0,1,924.874,195.5Z" transform="translate(-397.829 -93.989)" fill="#a7a9ac" opacity="0.478"/>
      <path id="Path_142" data-name="Path 142" d="M1003.289,239.654a3.842,3.842,0,1,1,3.867-3.842A3.853,3.853,0,0,1,1003.289,239.654Z" transform="translate(-432.121 -114.082)" fill="#a7a9ac" opacity="0.755"/>
      <path id="Path_143" data-name="Path 143" d="M925.357,106.42a4.485,4.485,0,1,1,4.506-4.482A4.5,4.5,0,0,1,925.357,106.42Z" transform="translate(-398.312 -56.208)" fill="#a7a9ac" opacity="0.384"/>
      <path id="Path_144" data-name="Path 144" d="M1079.77,464.185a5.115,5.115,0,1,1,5.146-5.114A5.132,5.132,0,0,1,1079.77,464.185Z" transform="translate(-464.473 -209.587)" fill="#a7a9ac" opacity="0.854"/>
      <path id="Path_145" data-name="Path 145" d="M1079.958,732.8a4.866,4.866,0,1,1,4.895-4.865A4.882,4.882,0,0,1,1079.958,732.8Z" transform="translate(-464.661 -325.369)" fill="#a7a9ac" opacity="0.782"/>
      <path id="Path_146" data-name="Path 146" d="M924.906,912.6a5.079,5.079,0,1,1,5.1-5.078A5.089,5.089,0,0,1,924.906,912.6Z" transform="translate(-397.861 -402.541)" fill="#a7a9ac" opacity="0.355"/>
      <path id="Path_147" data-name="Path 147" d="M1002.983,60.961a4.311,4.311,0,1,1,4.343-4.311A4.324,4.324,0,0,1,1002.983,60.961Z" transform="translate(-431.785 -36.8)" fill="#a7a9ac" opacity="0.687"/>
      <path id="Path_148" data-name="Path 148" d="M1080.039,105.559a4.835,4.835,0,1,1,4.865-4.835A4.848,4.848,0,0,1,1080.039,105.559Z" transform="translate(-464.712 -55.536)" fill="#a7a9ac" opacity="0.553"/>
      <path id="Path_149" data-name="Path 149" d="M1235.733,106.264a3.852,3.852,0,1,1,3.872-3.848A3.863,3.863,0,0,1,1235.733,106.264Z" transform="translate(-532.118 -56.686)" fill="#a7a9ac" opacity="0.729"/>
      <path id="Path_150" data-name="Path 150" d="M1157.4,330.763a5.018,5.018,0,1,1,5.042-5.018A5.033,5.033,0,0,1,1157.4,330.763Z" transform="translate(-497.913 -152.269)" fill="#a7a9ac" opacity="0.3"/>
      <path id="Path_151" data-name="Path 151" d="M1234.9,643.9a4.947,4.947,0,1,1,4.974-4.95A4.965,4.965,0,0,1,1234.9,643.9Z" transform="translate(-531.286 -287.05)" fill="#a7a9ac" opacity="0.574"/>
      <path id="Path_152" data-name="Path 152" d="M1235.058,1001.454a4.74,4.74,0,1,1,4.768-4.743A4.759,4.759,0,0,1,1235.058,1001.454Z" transform="translate(-531.442 -441.059)" fill="#a7a9ac" opacity="0.582"/>
      <path id="Path_153" data-name="Path 153" d="M1080,912.57a4.944,4.944,0,1,1,4.976-4.943A4.957,4.957,0,0,1,1080,912.57Z" transform="translate(-464.647 -402.643)" fill="#a7a9ac" opacity="0.513"/>
      <path id="Path_154" data-name="Path 154" d="M1234.729,105.654a5.241,5.241,0,1,1,5.273-5.238A5.255,5.255,0,0,1,1234.729,105.654Z" transform="translate(-531.088 -55.228)" fill="#a7a9ac" opacity="0.713"/>
      <path id="Path_155" data-name="Path 155" d="M1235.188,196.337a4.637,4.637,0,1,1,4.664-4.64A4.651,4.651,0,0,1,1235.188,196.337Z" transform="translate(-531.548 -94.762)" fill="#a7a9ac" opacity="0.287"/>
      <path id="Path_156" data-name="Path 156" d="M1313.257,500.58a4.034,4.034,0,0,0-.481-.05,4.451,4.451,0,1,0,0,8.9,4.022,4.022,0,0,0,.481-.048Z" transform="translate(-565.007 -229.625)" fill="#a7a9ac" opacity="0.565"/>
      <path id="Path_157" data-name="Path 157" d="M1313.105,1037.586c-.158-.013-.317-.042-.481-.042a4.649,4.649,0,1,0,0,9.3c.165,0,.323-.03.481-.042Z" transform="translate(-564.855 -460.665)" fill="#a7a9ac" opacity="0.329"/>
      <path id="Path_158" data-name="Path 158" d="M1312.77,320.6a3.659,3.659,0,0,0-.45-.048,5.124,5.124,0,1,0,0,10.248c.152,0,.3-.038.45-.049Z" transform="translate(-564.52 -152.191)" fill="#a7a9ac" opacity="0.479"/>
    </g>
  </g>
</svg>
